<svg id="visual" viewBox="0 0 1920 1080" width="1920" height="1080" xmlns="http://www.w3.org/2000/svg" xmlns:xlink="http://www.w3.org/1999/xlink" version="1.1"><rect x="0" y="0" width="1920" height="1080" fill="#071b2a"></rect><path d="M0 799L45.7 798.2C91.3 797.3 182.7 795.7 274.2 787.5C365.7 779.3 457.3 764.7 548.8 748C640.3 731.3 731.7 712.7 823 708.8C914.3 705 1005.7 716 1097 726C1188.3 736 1279.7 745 1371.2 730.5C1462.7 716 1554.3 678 1645.8 683.7C1737.3 689.3 1828.7 738.7 1874.3 763.3L1920 788L1920 1081L1874.3 1081C1828.7 1081 1737.3 1081 1645.8 1081C1554.3 1081 1462.7 1081 1371.2 1081C1279.7 1081 1188.3 1081 1097 1081C1005.7 1081 914.3 1081 823 1081C731.7 1081 640.3 1081 548.8 1081C457.3 1081 365.7 1081 274.2 1081C182.7 1081 91.3 1081 45.7 1081L0 1081Z" fill="#0627d9"></path><path d="M0 782L45.7 779.2C91.3 776.3 182.7 770.7 274.2 776.7C365.7 782.7 457.3 800.3 548.8 814.2C640.3 828 731.7 838 823 833.7C914.3 829.3 1005.7 810.7 1097 800C1188.3 789.3 1279.7 786.7 1371.2 775.3C1462.7 764 1554.3 744 1645.8 742.7C1737.3 741.3 1828.7 758.7 1874.3 767.3L1920 776L1920 1081L1874.3 1081C1828.7 1081 1737.3 1081 1645.8 1081C1554.3 1081 1462.7 1081 1371.2 1081C1279.7 1081 1188.3 1081 1097 1081C1005.7 1081 914.3 1081 823 1081C731.7 1081 640.3 1081 548.8 1081C457.3 1081 365.7 1081 274.2 1081C182.7 1081 91.3 1081 45.7 1081L0 1081Z" fill="#0537e7"></path><path d="M0 808L45.7 814C91.3 820 182.7 832 274.2 848.3C365.7 864.7 457.3 885.3 548.8 893.2C640.3 901 731.7 896 823 882.7C914.3 869.3 1005.7 847.7 1097 843.5C1188.3 839.3 1279.7 852.7 1371.2 866.3C1462.7 880 1554.3 894 1645.8 895.7C1737.3 897.3 1828.7 886.7 1874.3 881.3L1920 876L1920 1081L1874.3 1081C1828.7 1081 1737.3 1081 1645.8 1081C1554.3 1081 1462.7 1081 1371.2 1081C1279.7 1081 1188.3 1081 1097 1081C1005.7 1081 914.3 1081 823 1081C731.7 1081 640.3 1081 548.8 1081C457.3 1081 365.7 1081 274.2 1081C182.7 1081 91.3 1081 45.7 1081L0 1081Z" fill="#0340ef"></path><path d="M0 883L45.7 896C91.3 909 182.7 935 274.2 938.8C365.7 942.7 457.3 924.3 548.8 912.3C640.3 900.3 731.7 894.7 823 902.3C914.3 910 1005.7 931 1097 928.8C1188.3 926.7 1279.7 901.3 1371.2 892C1462.7 882.7 1554.3 889.3 1645.8 894.8C1737.3 900.3 1828.7 904.7 1874.3 906.8L1920 909L1920 1081L1874.3 1081C1828.7 1081 1737.3 1081 1645.8 1081C1554.3 1081 1462.7 1081 1371.2 1081C1279.7 1081 1188.3 1081 1097 1081C1005.7 1081 914.3 1081 823 1081C731.7 1081 640.3 1081 548.8 1081C457.3 1081 365.7 1081 274.2 1081C182.7 1081 91.3 1081 45.7 1081L0 1081Z" fill="#0537e7"></path><path d="M0 1011L45.7 1003.7C91.3 996.3 182.7 981.7 274.2 978.2C365.7 974.7 457.3 982.3 548.8 982C640.3 981.7 731.7 973.3 823 970.7C914.3 968 1005.7 971 1097 977C1188.3 983 1279.7 992 1371.2 988C1462.7 984 1554.3 967 1645.8 970.8C1737.3 974.7 1828.7 999.3 1874.3 1011.7L1920 1024L1920 1081L1874.3 1081C1828.7 1081 1737.3 1081 1645.8 1081C1554.3 1081 1462.7 1081 1371.2 1081C1279.7 1081 1188.3 1081 1097 1081C1005.7 1081 914.3 1081 823 1081C731.7 1081 640.3 1081 548.8 1081C457.3 1081 365.7 1081 274.2 1081C182.7 1081 91.3 1081 45.7 1081L0 1081Z" fill="#0627d9"></path></svg>