<svg id="visual" viewBox="0 0 1920 1080" width="1920" height="1080" xmlns="http://www.w3.org/2000/svg" xmlns:xlink="http://www.w3.org/1999/xlink" version="1.1"><rect x="0" y="0" width="1920" height="1080" fill="#001220"></rect><path d="M0 771L45.7 771.7C91.3 772.3 182.7 773.7 274.2 759.3C365.7 745 457.3 715 548.8 709.7C640.3 704.3 731.7 723.7 823 726.7C914.3 729.7 1005.7 716.3 1097 718C1188.3 719.7 1279.7 736.3 1371.2 728.5C1462.7 720.7 1554.3 688.3 1645.8 677.2C1737.3 666 1828.7 676 1874.3 681L1920 686L1920 1081L1874.3 1081C1828.7 1081 1737.3 1081 1645.8 1081C1554.3 1081 1462.7 1081 1371.2 1081C1279.7 1081 1188.3 1081 1097 1081C1005.7 1081 914.3 1081 823 1081C731.7 1081 640.3 1081 548.8 1081C457.3 1081 365.7 1081 274.2 1081C182.7 1081 91.3 1081 45.7 1081L0 1081Z" fill="#314ce3"></path><path d="M0 821L45.7 808C91.3 795 182.7 769 274.2 763.3C365.7 757.7 457.3 772.3 548.8 778.3C640.3 784.3 731.7 781.7 823 784C914.3 786.3 1005.7 793.7 1097 804.8C1188.3 816 1279.7 831 1371.2 837.2C1462.7 843.3 1554.3 840.7 1645.8 842.7C1737.3 844.7 1828.7 851.3 1874.3 854.7L1920 858L1920 1081L1874.3 1081C1828.7 1081 1737.3 1081 1645.8 1081C1554.3 1081 1462.7 1081 1371.2 1081C1279.7 1081 1188.3 1081 1097 1081C1005.7 1081 914.3 1081 823 1081C731.7 1081 640.3 1081 548.8 1081C457.3 1081 365.7 1081 274.2 1081C182.7 1081 91.3 1081 45.7 1081L0 1081Z" fill="#2948d5"></path><path d="M0 880L45.7 882C91.3 884 182.7 888 274.2 892.8C365.7 897.7 457.3 903.3 548.8 905.5C640.3 907.7 731.7 906.3 823 905.3C914.3 904.3 1005.7 903.7 1097 891.8C1188.3 880 1279.7 857 1371.2 840.7C1462.7 824.3 1554.3 814.7 1645.8 810.5C1737.3 806.3 1828.7 807.7 1874.3 808.3L1920 809L1920 1081L1874.3 1081C1828.7 1081 1737.3 1081 1645.8 1081C1554.3 1081 1462.7 1081 1371.2 1081C1279.7 1081 1188.3 1081 1097 1081C1005.7 1081 914.3 1081 823 1081C731.7 1081 640.3 1081 548.8 1081C457.3 1081 365.7 1081 274.2 1081C182.7 1081 91.3 1081 45.7 1081L0 1081Z" fill="#2144c7"></path><path d="M0 937L45.7 938.3C91.3 939.7 182.7 942.3 274.2 938.8C365.7 935.3 457.3 925.7 548.8 925.3C640.3 925 731.7 934 823 931.3C914.3 928.7 1005.7 914.3 1097 916.2C1188.3 918 1279.7 936 1371.2 935.7C1462.7 935.3 1554.3 916.7 1645.8 919.3C1737.3 922 1828.7 946 1874.3 958L1920 970L1920 1081L1874.3 1081C1828.7 1081 1737.3 1081 1645.8 1081C1554.3 1081 1462.7 1081 1371.2 1081C1279.7 1081 1188.3 1081 1097 1081C1005.7 1081 914.3 1081 823 1081C731.7 1081 640.3 1081 548.8 1081C457.3 1081 365.7 1081 274.2 1081C182.7 1081 91.3 1081 45.7 1081L0 1081Z" fill="#1a40b9"></path><path d="M0 1001L45.7 1002.8C91.3 1004.7 182.7 1008.3 274.2 1008.5C365.7 1008.7 457.3 1005.3 548.8 999.5C640.3 993.7 731.7 985.3 823 986C914.3 986.7 1005.7 996.3 1097 994.5C1188.3 992.7 1279.7 979.3 1371.2 973.3C1462.7 967.3 1554.3 968.7 1645.8 972.3C1737.3 976 1828.7 982 1874.3 985L1920 988L1920 1081L1874.3 1081C1828.7 1081 1737.3 1081 1645.8 1081C1554.3 1081 1462.7 1081 1371.2 1081C1279.7 1081 1188.3 1081 1097 1081C1005.7 1081 914.3 1081 823 1081C731.7 1081 640.3 1081 548.8 1081C457.3 1081 365.7 1081 274.2 1081C182.7 1081 91.3 1081 45.7 1081L0 1081Z" fill="#143cab"></path></svg>