<svg xmlns="http://www.w3.org/2000/svg" viewBox="0 0 609.27 120.67"><defs><style>.cls-1{fill:#fff;}</style></defs><g id="Layer_2" data-name="Layer 2"><g id="Layer_1-2" data-name="Layer 1"><path class="cls-1" d="M377.64,105.5a4.83,4.83,0,0,0-2.66.75,6.14,6.14,0,0,0-1.83,2V105.8h-2.39v14.68h2.45V110.6a2.85,2.85,0,0,1,1.31-2,4.18,4.18,0,0,1,2.45-1,3.35,3.35,0,0,1,2.06.81,2.22,2.22,0,0,1,1,1.62v10.41h2.58V110.14a4.46,4.46,0,0,0-1.43-3.21A4.89,4.89,0,0,0,377.64,105.5Z"/><rect class="cls-1" x="338.96" y="21.44" width="14.64" height="68.43"/><path class="cls-1" d="M355.43,112.85a4.88,4.88,0,0,1-1.81,3.81,6.37,6.37,0,0,1-4.32,1.58,7,7,0,0,1-4.49-1.37,4.91,4.91,0,0,1-1.87-4V97.68h-2.7v15.17a7.13,7.13,0,0,0,2.46,5.58,9,9,0,0,0,6.3,2.24,9.82,9.82,0,0,0,6.63-2.19,7,7,0,0,0,2.53-5.52l0-15.28h-2.76Z"/><rect class="cls-1" x="395.16" y="105.8" width="2.52" height="14.68"/><path class="cls-1" d="M311.11,105.56a7.09,7.09,0,0,0-5.29,2.22,7.37,7.37,0,0,0-2.17,5.36,6.94,6.94,0,0,0,2.23,5.25,7.7,7.7,0,0,0,10.74,0,7,7,0,0,0,2.22-5.21,7.2,7.2,0,0,0-2.28-5.4A7.53,7.53,0,0,0,311.11,105.56ZM315,116.81a5.25,5.25,0,0,1-3.75,1.49,5,5,0,0,1-3.67-1.56,5.29,5.29,0,0,1-1.53-3.73,4.88,4.88,0,0,1,1.6-3.68,5.19,5.19,0,0,1,3.75-1.49,4.91,4.91,0,0,1,3.67,1.55,5.27,5.27,0,0,1,1.49,3.79A4.77,4.77,0,0,1,315,116.81Z"/><polygon class="cls-1" points="309.47 67.96 274.05 21.44 258.84 21.44 258.84 89.87 272.81 89.87 272.81 42.53 309.08 89.87 323.44 89.87 323.44 21.44 309.47 21.44 309.47 67.96"/><path class="cls-1" d="M396.41,97.68a1.62,1.62,0,0,0-1.22.48,1.74,1.74,0,0,0,0,2.42,1.64,1.64,0,0,0,1.22.5,1.58,1.58,0,0,0,1.2-.5,1.74,1.74,0,0,0,0-2.42A1.56,1.56,0,0,0,396.41,97.68Z"/><path class="cls-1" d="M204.19,97a11,11,0,0,0-8.57,3.72,11.71,11.71,0,0,0-3.18,8.15,11.22,11.22,0,0,0,3.11,8.08,11.7,11.7,0,0,0,8.88,3.51,15.83,15.83,0,0,0,6.41-1.37V116a16.06,16.06,0,0,1-3.11,1.67,7.51,7.51,0,0,1-2.86.56,9.34,9.34,0,0,1-7-2.83,9,9,0,0,1-2.57-6.47,9.32,9.32,0,0,1,2.6-6.55,9,9,0,0,1,6.86-2.9,10.24,10.24,0,0,1,6.1,2.08v-3a19.27,19.27,0,0,0-2.12-.81A16.12,16.12,0,0,0,204.19,97Z"/><polygon class="cls-1" points="456.66 77.43 431.01 77.43 431.01 60.31 456.66 60.31 456.66 47.86 431.01 47.86 431.01 33.79 456.66 33.79 456.66 21.44 416.38 21.44 416.38 89.87 456.66 89.87 456.66 77.43"/><path class="cls-1" d="M491.28,10a3.61,3.61,0,0,1,2.56-.88,11.27,11.27,0,0,1,1.42.08c.45.08,1,.2,1.67.38L501,10.79a12.71,12.71,0,0,0,1.67.4,15,15,0,0,0,1.83.11,7.64,7.64,0,0,0,6.07-2.69C512.17,6.83,513.37,4,514.24,0H509.1a6.09,6.09,0,0,1-1.49,3,3.51,3.51,0,0,1-2.53,1,6.79,6.79,0,0,1-1.39-.12,7,7,0,0,1-1.18-.28l-4.35-1.15a14.78,14.78,0,0,0-2.16-.5,10.85,10.85,0,0,0-1.85-.17,7.61,7.61,0,0,0-6,2.65c-1.54,1.76-2.74,4.55-3.55,8.37h5.17A5.5,5.5,0,0,1,491.28,10Z"/><path class="cls-1" d="M229.18,61.75q0,8.4-3.83,12.7c-2.55,2.89-6.32,4.32-11.3,4.32s-8.68-1.43-11.18-4.28-3.73-7.09-3.73-12.74V21.44H184.6V64c0,9.27,2.44,16.22,7.33,20.79s12.34,6.84,22.32,6.84,17.26-2.27,22.14-6.84,7.34-11.52,7.34-20.79V21.44H229.18Z"/><path class="cls-1" d="M253,105.5a4.67,4.67,0,0,0-2.66.75,6.08,6.08,0,0,0-1.85,2V105.8h-2.39v14.63h2.46V110.6a2.82,2.82,0,0,1,1.28-2,4.28,4.28,0,0,1,2.46-1,3.33,3.33,0,0,1,2.07.81,2.24,2.24,0,0,1,1,1.62v10.36H258V110.14a4.38,4.38,0,0,0-1.46-3.21A4.82,4.82,0,0,0,253,105.5Z"/><polygon class="cls-1" points="272.99 100.51 270.52 100.51 270.52 105.5 268.32 105.5 268.32 107.45 270.52 107.45 270.52 120.48 272.99 120.48 272.99 107.45 275.51 107.45 275.51 105.5 272.99 105.5 272.99 100.51"/><path class="cls-1" d="M231.21,117.57a5.4,5.4,0,0,1-3,.73,4.17,4.17,0,0,1-3.24-1.45,5.06,5.06,0,0,1-1.31-3.49h11.43a8.8,8.8,0,0,0-1.51-5.44,6.34,6.34,0,0,0-5.49-2.42,6.42,6.42,0,0,0-5.13,2.36,7.9,7.9,0,0,0-1.79,5.16,7.67,7.67,0,0,0,1.81,5.17,6.55,6.55,0,0,0,5.19,2.24,8.26,8.26,0,0,0,3.88-.94,9,9,0,0,0,3.12-2.68l-2-1.25A7.56,7.56,0,0,1,231.21,117.57Zm-5.82-8.77a3.67,3.67,0,0,1,2.69-1.12,4.61,4.61,0,0,1,3,1.06,4.83,4.83,0,0,1,1.59,2.8h-8.84A5.52,5.52,0,0,1,225.39,108.8Z"/><path class="cls-1" d="M289.68,106.62a6,6,0,0,0-1.62,2.65V105.8h-2.27v14.68h2.48v-8.93a4.14,4.14,0,0,1,1.13-2.37,3,3,0,0,1,2.31-1.44,2.51,2.51,0,0,1,1.62.78l1.44-2a4,4,0,0,0-2.44-1A3.76,3.76,0,0,0,289.68,106.62Z"/><path class="cls-1" d="M507.57,21.44H490.81l-26,68.43h15.72l4.77-14.55h26.5l5.57,14.55H534ZM487.45,63.83l9.41-27.64,9.57,27.64Z"/><path class="cls-1" d="M556.73,106.62a6.11,6.11,0,0,0-1.6,2.65V105.8h-2.26v14.68h2.46v-8.93a4.07,4.07,0,0,1,1.15-2.37,3,3,0,0,1,2.31-1.44,2.45,2.45,0,0,1,1.59.78l1.47-2a4,4,0,0,0-2.46-1A3.87,3.87,0,0,0,556.73,106.62Z"/><polygon class="cls-1" points="383.81 21.44 369.16 21.44 369.16 89.87 407.15 89.87 407.15 77.43 383.81 77.43 383.81 21.44"/><polygon class="cls-1" points="534.08 103.97 538.06 99.48 534.69 99.48 532.1 103.97 534.08 103.97"/><rect class="cls-1" x="572.04" y="105.8" width="2.54" height="14.68"/><path class="cls-1" d="M573.29,97.68a1.61,1.61,0,0,0-1.21.48,1.74,1.74,0,0,0,0,2.42,1.63,1.63,0,0,0,1.21.5,1.73,1.73,0,0,0,1.22-2.92A1.64,1.64,0,0,0,573.29,97.68Z"/><path class="cls-1" d="M606.53,42a34.13,34.13,0,0,0-7.89-11.54,37.25,37.25,0,0,0-11.92-7.74,36,36,0,0,0-13.91-2.78,36.51,36.51,0,0,0-14,2.78,37.05,37.05,0,0,0-12,7.74A34.05,34.05,0,0,0,539,41.94a36.45,36.45,0,0,0,.72,29.23,34.83,34.83,0,0,0,9.87,12.28,38.1,38.1,0,0,0,11,6.11,37.05,37.05,0,0,0,38.09-8.41,33.48,33.48,0,0,0,7.89-11.49,36.37,36.37,0,0,0,0-27.7ZM588.18,72.14a21.61,21.61,0,0,1-30.88.06q-6-6.47-6-16.4a23.15,23.15,0,0,1,6.15-16.36,21.12,21.12,0,0,1,30.71,0,23.16,23.16,0,0,1,6.11,16.34C594.22,62.36,592.22,67.8,588.18,72.14Z"/><path class="cls-1" d="M593.68,105.56a7.06,7.06,0,0,0-5.27,2.22,7.39,7.39,0,0,0-2.19,5.36,6.91,6.91,0,0,0,2.24,5.25,7.72,7.72,0,0,0,10.75,0,7,7,0,0,0,2.2-5.21,7.22,7.22,0,0,0-2.26-5.4A7.59,7.59,0,0,0,593.68,105.56Zm3.9,11.25a5.24,5.24,0,0,1-3.74,1.49,5.07,5.07,0,0,1-3.69-1.56,5.35,5.35,0,0,1-1.5-3.73,4.86,4.86,0,0,1,1.58-3.68,5.17,5.17,0,0,1,3.76-1.49,4.9,4.9,0,0,1,3.67,1.55,5.35,5.35,0,0,1,1.49,3.79A4.78,4.78,0,0,1,597.58,116.81Z"/><path class="cls-1" d="M538.25,108.64a7,7,0,0,0-2.37-2.26,6.58,6.58,0,0,0-3.07-.76,6.35,6.35,0,0,0-4.92,2.33,7.43,7.43,0,0,0-1.94,5,7.85,7.85,0,0,0,1.85,5.21,6.28,6.28,0,0,0,4.94,2.31,6.8,6.8,0,0,0,3.25-.83,5.34,5.34,0,0,0,2.31-2.32v3.15h2.28V105.8h-2.33Zm-1.25,8.1a4.88,4.88,0,0,1-7.2.07,5.09,5.09,0,0,1-1.35-3.54,5.4,5.4,0,0,1,1.44-3.7,4.45,4.45,0,0,1,3.46-1.65,4.38,4.38,0,0,1,3.58,1.65,6,6,0,0,1,.07,7.17Z"/><path class="cls-1" d="M441.5,117.57a5.45,5.45,0,0,1-2.95.73,4.19,4.19,0,0,1-3.24-1.45,5,5,0,0,1-1.31-3.49h11.43a8.8,8.8,0,0,0-1.51-5.44,7.09,7.09,0,0,0-10.62-.06,7.85,7.85,0,0,0-1.79,5.16,7.54,7.54,0,0,0,1.83,5.17,6.48,6.48,0,0,0,5.15,2.24,8.31,8.31,0,0,0,3.9-.94,8.75,8.75,0,0,0,3.1-2.68l-2-1.25A7.4,7.4,0,0,1,441.5,117.57Zm-5.83-8.77a3.76,3.76,0,0,1,2.7-1.12,4.56,4.56,0,0,1,3,1.06,4.93,4.93,0,0,1,1.62,2.8h-8.86A5.57,5.57,0,0,1,435.67,108.8Z"/><path class="cls-1" d="M460.49,106.62a5.86,5.86,0,0,0-1.61,2.65V105.8h-2.27v14.63h2.46v-8.88a4.17,4.17,0,0,1,1.14-2.37,3.07,3.07,0,0,1,2.32-1.44,2.49,2.49,0,0,1,1.61.78l1.44-2a4,4,0,0,0-2.47-1A3.78,3.78,0,0,0,460.49,106.62Z"/><polygon class="cls-1" points="514.38 100.51 511.94 100.51 511.94 105.8 509.73 105.8 509.73 107.76 511.94 107.76 511.94 120.43 514.38 120.43 514.38 107.76 516.91 107.76 516.91 105.8 514.38 105.8 514.38 100.51"/><polygon class="cls-1" points="415.58 116.2 411.24 105.8 408.26 105.8 415.12 120.44 415.77 120.44 422.4 105.8 419.58 105.8 415.58 116.2"/><path class="cls-1" d="M497.67,97.68a1.7,1.7,0,0,0-1.22,2.9,1.65,1.65,0,0,0,1.22.5,1.71,1.71,0,0,0,1.2-2.92A1.59,1.59,0,0,0,497.67,97.68Z"/><path class="cls-1" d="M480.8,112.11c-2.6-.75-3.89-1.61-3.89-2.54a2,2,0,0,1,.7-1.5,2.18,2.18,0,0,1,1.55-.63,4.52,4.52,0,0,1,2.17.58,2.78,2.78,0,0,1,1.32,1.49l2-1.19a6.78,6.78,0,0,0-2.1-2.13,5.41,5.41,0,0,0-2.78-.69,6,6,0,0,0-3.65,1.07,3.69,3.69,0,0,0-1.64,3.18,3.53,3.53,0,0,0,2.06,3.21l3.83,1.49c1.29.5,1.94,1.18,1.94,2a1.75,1.75,0,0,1-.94,1.59,3.77,3.77,0,0,1-1.86.41,4,4,0,0,1-2.06-.56,3.94,3.94,0,0,1-1.42-1.58l-2.12,1.43a6.32,6.32,0,0,0,2.47,2,7.76,7.76,0,0,0,3.2.68,5.44,5.44,0,0,0,3.94-1.27,4.29,4.29,0,0,0,1.17-3.16C484.69,114.19,483.36,112.89,480.8,112.11Z"/><rect class="cls-1" x="496.43" y="105.8" width="2.52" height="14.63"/><polygon class="cls-1" points="60.89 60.66 99.86 60.66 97 57.63 64.01 57.63 60.89 60.66"/><polygon class="cls-1" points="34.9 86.48 29.32 91.81 128.71 91.81 123.78 86.48 34.9 86.48"/><polygon class="cls-1" points="14.48 106.4 142.24 106.4 135.47 99.11 21.9 99.11 14.48 106.4"/><polygon class="cls-1" points="7.08 113.7 0 120.67 155.49 120.67 149.02 113.7 7.08 113.7"/><polygon class="cls-1" points="46.05 75.25 113.41 75.25 110.58 72.24 49.15 72.24 46.05 75.25"/><polygon class="cls-1" points="75.69 46.17 86.34 46.17 81.25 40.7 75.69 46.17"/><polygon class="cls-1" points="94.83 19.02 66.38 19.02 58.97 26.2 101.61 26.2 94.83 19.02"/><polygon class="cls-1" points="81.31 37.63 84.26 40.8 115.15 40.8 108.38 33.61 51.55 33.61 44.15 40.8 78.1 40.8 81.31 37.63"/><polygon class="cls-1" points="81.25 4.38 73.82 11.72 88.06 11.72 81.25 4.38"/><polygon class="cls-1" points="142.24 70.1 139.98 67.66 135.47 62.79 21.9 62.79 21.9 62.79 14.48 70.1 14.48 70.1 142.24 70.1 142.24 70.1"/><polygon class="cls-1" points="7.08 77.39 0 84.34 0 84.34 155.49 84.34 155.49 84.34 149.02 77.39 7.08 77.39"/><polygon class="cls-1" points="128.71 55.5 128.71 55.5 122.04 48.31 122.04 48.31 91.25 48.31 91.25 48.31 70.48 48.31 70.48 48.31 36.85 48.31 29.32 55.5 128.71 55.5 128.71 55.5"/></g></g></svg>